<svg xmlns="http://www.w3.org/2000/svg" width="1065" height="594" viewBox="0 0 1065 594"><defs><style>.cls-1{fill:#d7fffd;}.cls-2{fill:#bfc1bf;}.cls-3{fill:#c6e5e4;}.cls-4{fill:#dcf9f7;}.cls-5{fill:#64c8f4;}.cls-6{fill:#2d2d2d;}.cls-7{fill:#b7b7b7;}.cls-8{fill:#8e8e8e;}.cls-9{fill:#757575;}.cls-10{fill:#848484;}.cls-11{fill:#515151;}.cls-12{fill:#1c1c1c;}.cls-13{fill:#e5b39a;}.cls-14{fill:#7f5d0f;}.cls-15{fill:#828282;}.cls-16{fill:#fbc9a8;}.cls-17{fill:#111;}.cls-18{fill:#3c8998;}.cls-19{fill:#fdd106;}.cls-20{fill:#fff;}.cls-21{fill:#dc8359;}.cls-22{fill:#44bfb7;}.cls-23{fill:#616161;}.cls-24{fill:#25a3c1;}.cls-25{fill:#f4f4a8;stroke:#6b6b6b;stroke-miterlimit:10;stroke-width:10.75px;}.cls-26{fill:#d3e5e2;}.cls-27{fill:#0b35aa;}</style></defs><title>drive</title><g id="Car"><g id="windshield"><path class="cls-1" d="M387.13,58H904.87A139.13,139.13,0,0,1,1044,197.13V375a0,0,0,0,1,0,0H248a0,0,0,0,1,0,0V197.13A139.13,139.13,0,0,1,387.13,58Z"/></g><g id="Mirror"><rect class="cls-2" x="572.13" y="81.56" width="150.48" height="47.29" rx="23.65"/><rect class="cls-2" x="638.77" y="57.92" width="17.2" height="47.29"/><rect class="cls-3" x="578.58" y="88.01" width="137.58" height="34.4" rx="17.2"/><rect class="cls-4" x="623.73" y="96.11" width="49.44" height="4.8" rx="2.27"/><rect class="cls-4" x="630.18" y="104.71" width="36.55" height="4.8" rx="1.95"/></g><g id="Buildings"><rect class="cls-5" x="488.9" y="190.93" width="44.7" height="89.41"/><rect class="cls-5" x="452.48" y="218.38" width="26.42" height="60.96"/><rect class="cls-5" x="816.2" y="185.87" width="32.51" height="93.47"/><polygon class="cls-5" points="582.37 185.87 545.79 204.56 545.79 279.34 582.37 279.34 612.85 279.34 612.85 145.23 582.37 145.23 582.37 185.87"/><rect class="cls-5" x="771.5" y="161.49" width="44.7" height="117.85"/><polygon class="cls-5" points="702.41 185.87 669.9 185.87 669.9 161.49 625.2 161.49 625.2 279.34 669.9 279.34 702.41 279.34 761.34 279.34 761.34 131.01 702.41 131.01 702.41 185.87"/></g><g id="Street"><path class="cls-6" d="M321,268.59H971.64a71.28,71.28,0,0,1,71.28,71.28v16.86a0,0,0,0,1,0,0H249.67a0,0,0,0,1,0,0V339.87A71.28,71.28,0,0,1,321,268.59Z"/><polygon class="cls-7" points="1042.92 364.33 249.67 364.33 544.19 268 750.56 268 1042.92 364.33"/></g><g id="Interior"><path class="cls-8" d="M791.79,318.91a1935.83,1935.83,0,0,0-291,0l-251.14,19V581.49a7.24,7.24,0,0,0,7,7.41h779.22a7.24,7.24,0,0,0,7-7.41V337.87l-1.61-.12Z"/></g><g id="Body"><rect class="cls-9" x="544.19" y="311.59" width="206.37" height="277.32" rx="9.42"/><path class="cls-10" d="M647.37,507.21h0c-52,0-94.59-34.51-94.59-76.69V332.21c0-3.45,3.49-6.27,7.74-6.27l28.05-2.82a591,591,0,0,1,117.6,0l28.05,2.82c4.26,0,7.74,2.82,7.74,6.27v98.31C742,472.7,699.4,507.21,647.37,507.21Z"/><circle class="cls-11" cx="716.16" cy="431.97" r="17.2"/><circle class="cls-11" cx="593.63" cy="384.68" r="21.5"/><circle class="cls-11" cx="701.12" cy="384.68" r="21.5"/><circle class="cls-11" cx="578.58" cy="431.97" r="17.2"/><rect class="cls-11" x="617.28" y="380.38" width="60.19" height="8.6" rx="4.3"/><rect class="cls-11" x="617.28" y="399.73" width="60.19" height="8.6" rx="4.3"/><rect class="cls-11" x="600.08" y="421.22" width="94.59" height="34.4" rx="7.12"/></g><g id="Steering_wheel" data-name="Steering wheel"><path class="cls-12" d="M389.4,260a98.89,98.89,0,1,0,98.89,98.89A98.89,98.89,0,0,0,389.4,260Zm0,169.83a70.94,70.94,0,1,1,71-70.94A70.94,70.94,0,0,1,389.4,429.82Z"/><path class="cls-12" d="M377.82,341.68H401a18.51,18.51,0,0,1,18.51,18.51v20.06a8.73,8.73,0,0,1-8.73,8.73H368a8.73,8.73,0,0,1-8.73-8.73V360.19A18.51,18.51,0,0,1,377.82,341.68Z" transform="translate(778.81 730.66) rotate(180)"/><rect class="cls-12" x="299.12" y="345.98" width="180.58" height="25.8"/><rect class="cls-12" x="374.36" y="354.58" width="30.1" height="85.99"/></g><g id="Front_Seat" data-name="Front Seat"><circle class="cls-13" cx="410.14" cy="240.31" r="95.98"/><path class="cls-14" d="M483.84,205.79s-59.9,27-55.3,83.5c-43.1,11.15-134,17.63-134,17.63l4.64-133.27c.34-10.85,12.21-31.18,21.37-38.27,42-32.47,150.86-3.12,165.92,7.3,14.64,10.13,33.5-2.15,33.5-2.15S529.32,197,483.84,205.79Z"/><path class="cls-14" d="M492.79,230.73s14-5.37,14.63.11c-1,2-5.1.46-7.68.86C495.44,232.36,491.52,233.52,492.79,230.73Z"/><path class="cls-13" d="M502,251.7s7.88,11.06,4.48,13.08-10,1.76-10,1.76"/></g><g id="Chairs"><rect class="cls-15" x="847.21" y="281.49" width="15.01" height="42.62"/><rect class="cls-15" x="935.57" y="281.49" width="15.01" height="42.62"/><rect class="cls-15" x="335.35" y="281.49" width="15.01" height="42.62"/><rect class="cls-15" x="423.72" y="281.49" width="15.01" height="42.62"/><path class="cls-11" d="M312.11,317.64H468.62a61.8,61.8,0,0,1,61.8,61.8V588.9a0,0,0,0,1,0,0H250.32a0,0,0,0,1,0,0V379.44A61.8,61.8,0,0,1,312.11,317.64Z"/><rect class="cls-11" x="283.15" y="143.91" width="214.44" height="140.41" rx="38.9"/><rect class="cls-11" x="794.79" y="143.91" width="214.44" height="140.41" rx="38.9"/><path class="cls-11" d="M823.75,319.62h157a61.57,61.57,0,0,1,61.57,61.57V588.9a0,0,0,0,1,0,0H762.17a0,0,0,0,1,0,0V381.19A61.57,61.57,0,0,1,823.75,319.62Z"/></g><g id="People"><ellipse class="cls-16" cx="449.23" cy="415.53" rx="5.29" ry="3.78" transform="translate(-34.31 40.48) rotate(-4.97)"/><ellipse class="cls-16" cx="452.4" cy="402.29" rx="3.78" ry="5.29" transform="translate(-44.16 748.61) rotate(-76.54)"/><rect class="cls-16" x="337.81" y="348.13" width="73.09" height="73.09"/><ellipse class="cls-16" cx="375.43" cy="304.8" rx="84.91" ry="95.98"/><path class="cls-16" d="M511.6,437.45c-5.51,23.05-14.86,16.65-37.65,11.2-25.6-6.13-26-11.54-20.48-34.59s15.11-16.43,30.14-12.84S514,427.59,511.6,437.45Z"/><path class="cls-16" d="M481.82,413.25s15.9,14.19,12.84,32.07c-1.43,8.36-2.17,29.6-16.66,37.83l21.62,37.35s32.63-39.75,12.27-87.51C491.61,397.5,481.82,413.25,481.82,413.25Z"/><g id="phone"><rect class="cls-15" x="455" y="369.3" width="36" height="72.23" rx="6.24" transform="translate(107.36 -98.96) rotate(13.46)"/><rect class="cls-2" x="452.64" y="368.74" width="36" height="72.23" rx="6.24" transform="translate(107.16 -98.43) rotate(13.46)"/><circle class="cls-11" cx="471.95" cy="399.24" r="11.38"/><path class="cls-17" d="M460.88,370.39h20.59a6.41,6.41,0,0,1,6.41,6.41v58.76a0,0,0,0,1,0,0H454.47a0,0,0,0,1,0,0V376.8A6.41,6.41,0,0,1,460.88,370.39Z" transform="translate(106.74 -98.61) rotate(13.46)"/><circle class="cls-18" cx="457.32" cy="414.09" r="2.58"/><circle class="cls-19" cx="455.74" cy="420.71" r="2.58"/><rect class="cls-11" x="464.22" y="380.17" width="20.03" height="20.03" transform="translate(103.85 -99.67) rotate(13.46)"/><rect class="cls-20" x="463.44" y="403.58" width="14.34" height="3.54" rx="1.77" transform="translate(107.28 -98.41) rotate(13.46)"/><rect class="cls-20" x="460.45" y="414.92" width="6.57" height="1.42" transform="translate(109.48 -96.53) rotate(13.46)"/><rect class="cls-20" x="458.87" y="421.53" width="6.57" height="1.42" transform="translate(110.98 -95.97) rotate(13.46)"/><circle class="cls-21" cx="471.41" cy="417.46" r="2.58"/><circle class="cls-22" cx="469.82" cy="424.08" r="2.58"/><rect class="cls-20" x="474.53" y="418.29" width="6.57" height="1.42" transform="translate(110.65 -99.71) rotate(13.46)"/><rect class="cls-20" x="472.95" y="424.9" width="6.57" height="1.42" transform="translate(112.15 -99.16) rotate(13.46)"/><rect class="cls-23" x="475.27" y="381.47" width="10.02" height="10.02" transform="translate(103.15 -101.18) rotate(13.46)"/><rect class="cls-23" x="463.2" y="388.88" width="10.02" height="10.02" transform="translate(104.55 -98.16) rotate(13.46)"/><path class="cls-6" d="M446.65,433h33.41a0,0,0,0,1,0,0v1.62a3.77,3.77,0,0,1-3.77,3.77H450.41a3.77,3.77,0,0,1-3.77-3.77V433A0,0,0,0,1,446.65,433Z" transform="translate(114.14 -95.89) rotate(13.46)"/></g><g id="Layer_14" data-name="Layer 14"><path class="cls-16" d="M494.92,419c5.94,6.74,7.6,15.5,3.7,19.55s-5.41-5.48-11.35-12.22-10.83-8-10.18-12.19C478.06,407.87,489,412.23,494.92,419Z"/><path class="cls-24" d="M490.33,529.43c50.3-37.66-14.34-30.16-41.53-105.36C407.44,449.73,473,542.9,490.33,529.43Z"/></g><path class="cls-24" d="M453.9,588.9H290.52a239.58,239.58,0,0,0,5.6-74l-5.6-70a50.22,50.22,0,0,1,50.32-50.11h62.73a50.22,50.22,0,0,1,50.33,50.11l-6,78.49a195.83,195.83,0,0,0,6,65.52Z"/><path d="M344.16,211.71c54.3-19.57,138.33,6.2,122.23,64.32-1.8,6.53-5.9,12-10.93,16.38-6.89,6-13.61,20.73-20.7,39.9-21.53,58.14,6.87,139.83-90.6,175.06-41.48,15-68.87-12.67-57.94-76.93,7.23-42.55,1.6-87.36,1.6-87.36-2-15,.93-67.69,6.81-81.56C302.28,243.5,316.87,221.54,344.16,211.71Z"/><path d="M445.55,310s14-5.41,14.64.06c-1,2-5.11.48-7.69.89C448.21,311.62,444.29,312.78,445.55,310Z"/><path class="cls-16" d="M452.7,328.77s7.91,11,4.52,13.07-10,1.8-10,1.8"/><ellipse class="cls-16" cx="431.84" cy="330.09" rx="16.31" ry="10.71" transform="translate(49.71 716.65) rotate(-82.72)"/></g><g id="Layer_9" data-name="Layer 9"><rect class="cls-25" x="579.66" y="282.56" width="137.58" height="64.49" rx="7.74"/><rect class="cls-26" x="592.55" y="295.46" width="38.7" height="38.7"/><rect class="cls-20" x="647.37" y="313.74" width="40.85" height="4.3" rx="2.15"/><rect class="cls-20" x="647.37" y="324.48" width="53.74" height="4.3" rx="2.15"/><rect class="cls-20" x="647.37" y="302.99" width="45.14" height="4.3" rx="2.15"/></g><g id="Musical_Notes" data-name="Musical Notes"><circle class="cls-27" cx="110.91" cy="230.18" r="10.53"/><rect class="cls-27" x="112.62" y="186.94" width="8.72" height="45.03" rx="3.67" transform="translate(-1.03 0.58) rotate(-0.28)"/><circle class="cls-27" cx="137.05" cy="230.05" r="10.53"/><rect class="cls-27" x="138.76" y="186.81" width="8.72" height="45.03" rx="3.67" transform="translate(-1.03 0.71) rotate(-0.28)"/><rect class="cls-27" x="112.53" y="186.87" width="34.86" height="9.44" rx="3.7" transform="translate(-0.95 0.64) rotate(-0.28)"/><circle class="cls-27" cx="182.81" cy="174.22" r="10.53"/><rect class="cls-27" x="184.63" y="131.01" width="8.72" height="45.03" rx="3.67"/><circle class="cls-27" cx="208.96" cy="174.22" r="10.53"/><rect class="cls-27" x="210.77" y="131.01" width="8.72" height="45.03" rx="3.67"/><rect class="cls-27" x="184.63" y="131.01" width="34.86" height="9.44" rx="3.7"/><circle class="cls-27" cx="230.11" cy="296.76" r="10.53"/><rect class="cls-27" x="231.92" y="253.54" width="8.72" height="45.03" rx="3.67"/><circle class="cls-27" cx="256.25" cy="296.76" r="10.53"/><rect class="cls-27" x="258.07" y="253.54" width="8.72" height="45.03" rx="3.67"/><rect class="cls-27" x="231.92" y="253.54" width="34.86" height="9.44" rx="3.7"/><circle class="cls-27" cx="34.35" cy="155" r="16.85"/><rect class="cls-27" x="37.25" y="85.86" width="13.94" height="72.05" rx="5.87"/><circle class="cls-27" cx="76.18" cy="155" r="16.85"/><rect class="cls-27" x="79.09" y="85.86" width="13.94" height="72.05" rx="5.87"/><rect class="cls-27" x="37.25" y="85.86" width="55.78" height="15.11" rx="5.92"/><circle class="cls-27" cx="140.5" cy="136.99" r="15.52"/><rect class="cls-27" x="143.18" y="81.56" width="12.84" height="58.1" rx="5.06"/><circle class="cls-27" cx="186.86" cy="254.01" r="14.58"/><rect class="cls-27" x="189.37" y="201.95" width="12.06" height="54.58" rx="4.75"/><circle class="cls-27" cx="85.22" cy="205.17" r="7.52"/><rect class="cls-27" x="86.51" y="178.3" width="6.23" height="28.17" rx="2.45"/></g></g></svg>