<svg id="Layer_1" data-name="Layer 1" xmlns="http://www.w3.org/2000/svg" width="1301.02" height="873.89" viewBox="0 0 1301.02 873.89"><defs><style>.cls-1{fill:#3c8998;}.cls-2{fill:#dc8359;}.cls-3{fill:#de5579;}.cls-4{fill:#44bfb7;}.cls-5{fill:#f6a096;}.cls-6{fill:#1d445a;}.cls-7{fill:#575757;}.cls-8{fill:#231f20;}.cls-9{fill:#fdd106;}.cls-10{fill:#956e2a;}.cls-11{fill:#f1b5be;}.cls-12{fill:#d08729;}.cls-13{fill:#46350c;}.cls-14{fill:#3bac49;}.cls-15{fill:none;stroke:#000;}.cls-15,.cls-18{stroke-miterlimit:10;}.cls-16{fill:#fbc9a8;}.cls-17{fill:#fcf6b5;}.cls-18,.cls-21{fill:#fff;}.cls-18{stroke:#231f20;stroke-width:5px;}.cls-19{fill:#3a3a3a;}.cls-20{fill:#515151;}.cls-22{fill:#616161;}</style></defs><title>people</title><circle class="cls-1" cx="177.91" cy="494.83" r="177.91"/><circle class="cls-2" cx="1123.11" cy="494.83" r="177.91"/><circle class="cls-3" cx="400.69" cy="177.91" r="177.91"/><circle class="cls-4" cx="890.06" cy="177.91" r="177.91"/><ellipse class="cls-5" cx="218.35" cy="612.13" rx="15.14" ry="19.91"/><path class="cls-5" d="M254.41,540.2s23.89-10.15,21.88,17.65c-1.91,26.46-17.89,59.27-17.89,59.27H241.27Z" transform="translate(-27.6 -16.31)"/><path class="cls-6" d="M262.49,494.19s16.09,32.52,14.84,48.08c-1.79,22.28-1.4,19.32-1.4,19.32L248.79,546l5.73-41.61Z" transform="translate(-27.6 -16.31)"/><path class="cls-6" d="M189.3,608.53s-30.43-21-79.49-21c-31.69.37-9.51-52,8.72-89.94,6.59-13.73,13.25-23.44,27.57-28.6l46.71-8,37.74,11.14" transform="translate(-27.6 -16.31)"/><path class="cls-6" d="M145.48,494.19S114.52,622,119,648.08C158.62,662,175.53,690,250.89,667c-10.27-31.33,3.63-97.65,3.63-97.65" transform="translate(-27.6 -16.31)"/><path class="cls-6" d="M231.22,472.13l23.5,14.38c20.15,12.35,7.45,41,7.45,41l-8.23,30.87-78.61,6.54" transform="translate(-27.6 -16.31)"/><path class="cls-5" d="M199.6,576.08l-52.83-10.59c-5.76-.3-5.88-1.79-5.36-6.83,1.55-14.72,8.76-29.07,8.76-29.07s-29.85-2.35-39.33-6.05l-3.63-1.14s-38.89,65.05,13.86,82.52c49.48,3.61,64.94.61,64.94.61" transform="translate(-27.6 -16.31)"/><path class="cls-6" d="M198.59,576s6.66-8.73,11.63-6.9,2.19,10.51,2.19,10.51l-14.57,4.71Z" transform="translate(-27.6 -16.31)"/><rect class="cls-7" x="210.74" y="534.59" width="43.28" height="75.53" rx="3.33" transform="translate(193.26 -61.58) rotate(21.03)"/><path class="cls-5" d="M204.26,575.85s19.74-3,19,14c-.71,16.18-22.1,18-67.58,16.29,0-15.86,11.7-29.39,11.7-29.39Z" transform="translate(-27.6 -16.31)"/><path class="cls-5" d="M206,434c13.33-44.83,50.73-52.2,74.2-43.75s12.48,35.84,12.48,35.84l-9.79,14.56c-.18,3.88.8,9.58.28,12.44-1.43,7.88-9.8,12-17.56,8.81h0C253.21,487,224.73,468,224.73,468S201.92,455.86,206,434Z" transform="translate(-27.6 -16.31)"/><path class="cls-5" d="M241.27,460.81,234.79,475a29,29,0,0,1-23.3,17.08c-8.35.78-13.81-2.38-17.36-6.58-5.78-6.83-6.11-16.86-1.32-24.5,3.75-6,9-14,14-20.52" transform="translate(-27.6 -16.31)"/><path class="cls-8" d="M243.77,440.05l.95.18a13.08,13.08,0,0,0,12.18-4.07c2.67-2.94,5.56-6.68,6.75-10.15,2.46-7.17,7.52-6,17.2-4.35s41.88,13,37.17-7.72c-3.74-13.17-52.12-68.85-87.66-25.66-9.88,9-15.58,12.6-21,32.74a5.77,5.77,0,0,0,3.89,7c7,2.11,12.55,2,25.23-19.23,0,0,9.47-11.42,11.77,7.39a21.5,21.5,0,0,1-7.52,20.06A2.2,2.2,0,0,0,243.77,440.05Z" transform="translate(-27.6 -16.31)"/><path class="cls-9" d="M1211.46,497.47s31,127.85,26.51,153.89c-39.66,13.88-56.56,41.92-131.92,18.9,10.27-31.33-3.64-97.65-3.64-97.65" transform="translate(-27.6 -16.31)"/><path class="cls-9" d="M1158.94,462l33.93,12.22a57.93,57.93,0,0,1,32.62,29.46c18.24,38,50.07,112.61,18.39,112.23-49.07,0-81-.64-81-.64l-109.33-9.7a10.39,10.39,0,0,1-9.3-12.23l3.54-19.25,30.86-54.87c7.49-11.49,18.12-21.47,29-29.76l13.93-10.58Z" transform="translate(-27.6 -16.31)"/><rect class="cls-7" x="1087.3" y="529.18" width="48.53" height="93.99" rx="3.94" transform="translate(2263.78 978.93) rotate(172.16)"/><path class="cls-10" d="M1169.59,575.47l-22.91-2s-7.68-10.26-15.67-9.72c-5.46,0,3.47,18.4,3.47,18.4s-19.69-2.11-19.86,12.63c-.24,21.39,18.65,22.58,64.13,20.29C1178.75,594.12,1169.59,575.47,1169.59,575.47Z" transform="translate(-27.6 -16.31)"/><path class="cls-10" d="M1090.57,564.09c6.61-4.31,5.84,4.66,2.21,15.24,8.79,3.17,26.57,39.83-16.76,33.42-12.9-2.56-21.54-4.68-26.85-6.12a7.9,7.9,0,0,1-5.7-9l4.33-23.51s22.58.78,35.34-1.23C1086.44,572.32,1084,568.4,1090.57,564.09Z" transform="translate(-27.6 -16.31)"/><path class="cls-10" d="M1169,487.34c-2,4.54-5.91,8.72-13.35,10.28a26,26,0,0,1-24.65-8.37l-9.31-10.39s-30.24,9.7-36.08-17.57h0a12.83,12.83,0,0,1-14.15-13.37c.15-2.84,2.29-7.93,3-11.63l-5.77-16.54s-4-29,19.28-30.17,56,16.54,58.35,62.62c6,4.22,12.68,9.7,17.48,13.81A18.51,18.51,0,0,1,1169,487.34Z" transform="translate(-27.6 -16.31)"/><path class="cls-8" d="M1153.28,402.81c-1.37-18.79-24.91-60.11-77.44-21.8a7.3,7.3,0,0,1-1.31.73c-19.17,8.15-12.65,34.1-2.68,33s25.64-5.74,27.75,2.41c.91,3.51,9.48,12.68,13.13,17.06a6.29,6.29,0,0,1,1.35,2.81c1.05,5,5.39,21.34,18.08,25.43a6.38,6.38,0,0,1,4.41,5.38c1,9.18,1.47,21.45,13.6,24.29a6.29,6.29,0,0,1,4.35,3.8c2.8,6.82,9.33,18,27.22,14.66,11.22-.15,15.46-16.07,5.74-25.53a6.34,6.34,0,0,1-1.61-6c3.4-14.48-5.71-24.17-10.55-28.15a6.37,6.37,0,0,1-2.31-5.49c.7-7.71.41-26.51-16.83-37.56A6.4,6.4,0,0,1,1153.28,402.81Z" transform="translate(-27.6 -16.31)"/><path class="cls-11" d="M416,134.38,382.1,146.6a58,58,0,0,0-32.62,29.46c-18.24,38-50.07,112.61-18.39,112.23,49.07,0,81-.63,81-.63L521.41,278a10.39,10.39,0,0,0,9.3-12.23l-3.54-19.25L496.31,191.6c-7.49-11.49-18.12-21.47-29-29.76l-13.94-10.58Z" transform="translate(-27.6 -16.31)"/><path class="cls-11" d="M355.18,177.27s-31,127.85-26.52,153.89c39.66,13.88,56.56,41.92,131.93,18.89-10.27-31.32,3.63-97.64,3.63-97.64" transform="translate(-27.6 -16.31)"/><rect class="cls-7" x="439.13" y="201.58" width="48.53" height="93.99" rx="3.94" transform="translate(10.66 -77.23) rotate(7.84)"/><path class="cls-12" d="M405.38,247.88l22.91-2S436,235.61,444,236.15c5.46,0-3.47,18.4-3.47,18.4s19.69-2.11,19.86,12.63c.25,21.39-18.65,22.58-64.13,20.29C396.22,266.53,405.38,247.88,405.38,247.88Z" transform="translate(-27.6 -16.31)"/><path class="cls-12" d="M484.4,236.49c-6.61-4.31-5.84,4.66-2.21,15.24-8.79,3.17-26.57,39.83,16.77,33.42,12.89-2.56,21.53-4.68,26.84-6.12a7.9,7.9,0,0,0,5.7-9l-4.33-23.51s-22.58.78-35.34-1.23C488.53,244.72,491,240.8,484.4,236.49Z" transform="translate(-27.6 -16.31)"/><path class="cls-12" d="M406,159.74c2,4.54,5.9,8.72,13.34,10.29A26.07,26.07,0,0,0,444,161.66l9.31-10.4s30.24,9.7,36.08-17.57h0a12.83,12.83,0,0,0,14.15-13.37c-.15-2.84-2.29-7.93-3-11.63l5.77-16.54s4.06-29-19.28-30.17-56,16.54-58.35,62.62c-6,4.22-12.68,9.7-17.48,13.81A18.49,18.49,0,0,0,406,159.74Z" transform="translate(-27.6 -16.31)"/><path class="cls-13" d="M461.21,86.48c-15.39,40.06-47.09,48.59-47.09,48.59-8.22,3-41.82,21.22-53.59,27.66a1.26,1.26,0,0,1-1.68-1.76L398.69,95l22.77-37.7A41,41,0,0,1,464,38.18c12.87,2.36,28.06,6.63,41.38,14.36,19.52,11.32,5.41,39.61,5.41,39.61S492.51,103.62,461.21,86.48Z" transform="translate(-27.6 -16.31)"/><path class="cls-14" d="M983.94,179.21s31,127.85,26.52,153.89C970.8,347,953.9,375,878.54,352c10.26-31.32-3.64-97.65-3.64-97.65" transform="translate(-27.6 -16.31)"/><path class="cls-14" d="M923.09,142.46,957,154.67a58,58,0,0,1,32.62,29.46c18.24,38,50.07,112.61,18.39,112.24-49.07,0-81-.64-81-.64L817.71,286a10.39,10.39,0,0,1-9.3-12.23L812,254.55l30.86-54.88c7.49-11.49,18.12-21.47,29.05-29.76l13.93-10.58Z" transform="translate(-27.6 -16.31)"/><path class="cls-15" d="M1001.12,157.81" transform="translate(-27.6 -16.31)"/><rect class="cls-7" x="851.46" y="209.65" width="48.53" height="93.99" rx="3.94" transform="translate(1750.68 375.06) rotate(172.16)"/><path class="cls-16" d="M933.74,256l-22.91-2s-7.68-10.27-15.67-9.73c-5.46,0,3.47,18.41,3.47,18.41s-19.69-2.12-19.86,12.62c-.24,21.39,18.65,22.58,64.13,20.29C942.9,274.6,933.74,256,933.74,256Z" transform="translate(-27.6 -16.31)"/><path class="cls-16" d="M854.72,244.56c6.61-4.3,5.84,4.66,2.21,15.24,8.79,3.18,26.57,39.83-16.76,33.43-12.9-2.57-21.54-4.69-26.85-6.13a7.9,7.9,0,0,1-5.7-9.05l4.33-23.5s22.58.78,35.34-1.23C850.59,252.8,848.11,248.87,854.72,244.56Z" transform="translate(-27.6 -16.31)"/><path class="cls-16" d="M933.1,167.82c-2,4.54-5.9,8.71-13.35,10.28a26.07,26.07,0,0,1-24.65-8.37l-9.31-10.4s-30.24,9.7-36.08-17.57h0a12.83,12.83,0,0,1-14.15-13.36c.15-2.84,2.29-7.94,3-11.64l-5.77-16.54s-4-29,19.28-30.17,56,16.54,58.35,62.62c6,4.22,12.68,9.71,17.48,13.81A18.52,18.52,0,0,1,933.1,167.82Z" transform="translate(-27.6 -16.31)"/><path class="cls-17" d="M877.86,108.92a3.14,3.14,0,0,0,1.95-3.21l-.23-2.69c-.34-3.93-2.57-9,.12-11.89,6.11-6.56,7.94,2.48,7.94,2.48,4.72,24.28,9.92,26.26,17.21,26.63a5.76,5.76,0,0,0,6-5.27c1.73-20.76-2.42-26-8.66-37.89C883.42,24.4,826,52.74,818,63.86c-11.46,17.94,15.73,25.83,25.4,27.53s21.6.17,23.76,7.8C867.18,99.19,870.11,111.93,877.86,108.92Z" transform="translate(-27.6 -16.31)"/><rect class="cls-18" x="529.24" y="352.87" width="242.54" height="518.51" rx="47.24"/><rect class="cls-7" x="598.67" y="383.26" width="103.69" height="5.56" rx="2.78"/><rect class="cls-19" x="547.56" y="431.54" width="205.9" height="386.3"/><circle class="cls-1" cx="583.42" cy="703.54" r="15.9"/><circle class="cls-9" cx="583.42" cy="745.46" r="15.9"/><rect class="cls-20" x="588.79" y="474.27" width="123.44" height="123.44"/><rect class="cls-21" x="606.32" y="621.15" width="88.37" height="21.79" rx="10.89"/><rect class="cls-21" x="603.8" y="699.15" width="40.46" height="8.77"/><rect class="cls-21" x="603.8" y="741.07" width="40.46" height="8.77"/><circle class="cls-2" cx="672.66" cy="703.54" r="15.9"/><circle class="cls-4" cx="672.66" cy="745.46" r="15.9"/><rect class="cls-21" x="693.03" y="699.15" width="40.46" height="8.77"/><rect class="cls-21" x="693.03" y="741.07" width="40.46" height="8.77"/><rect class="cls-22" x="650.51" y="474.27" width="61.72" height="61.72"/><rect class="cls-22" x="588.79" y="536" width="61.72" height="61.72"/><rect class="cls-20" x="547.56" y="784.61" width="205.9" height="33.22"/></svg>