<svg xmlns="http://www.w3.org/2000/svg" width="458.97mm" height="300.92mm" viewBox="0 0 1301.02 853"><defs><style>.cls-1{fill:#3c8998;}.cls-2{fill:#f6a096;}.cls-3{fill:#1d445a;}.cls-4{fill:#575757;}.cls-5{fill:#231f20;}.cls-6{fill:#dc8359;}.cls-7{fill:#fdd106;}.cls-8{fill:#956e2a;}.cls-9{fill:#de5579;}.cls-10{fill:#f1b5be;}.cls-11{fill:#d08729;}.cls-12{fill:#46350c;}.cls-13{fill:#44bfb7;}.cls-14{fill:#3bac49;}.cls-15{fill:#fbc9a8;}.cls-16{fill:#fcf6b5;}.cls-17{fill:#bfc1bf;}.cls-18{fill:#111;}.cls-19{fill:#515151;}.cls-20{fill:#fff;}.cls-21{fill:#616161;}.cls-22{fill:#2d2d2d;}</style></defs><title>people</title><g id="People"><g id="Blue_Shirt" data-name="Blue Shirt"><circle class="cls-1" cx="177.91" cy="494.83" r="177.91"/><ellipse class="cls-2" cx="218.35" cy="612.13" rx="15.14" ry="19.91"/><path class="cls-2" d="M226.81,523.89s23.89-10.15,21.88,17.65c-1.91,26.46-17.89,59.27-17.89,59.27H213.67Z"/><path class="cls-3" d="M234.89,477.88S251,510.4,249.73,526c-1.79,22.28-1.4,19.32-1.4,19.32l-27.14-15.59,5.73-41.61Z"/><path class="cls-3" d="M161.7,592.22s-30.43-21-79.49-21c-31.69.37-9.51-52,8.72-89.94,6.59-13.73,13.25-23.44,27.57-28.6l46.71-8L203,455.82"/><path class="cls-3" d="M117.88,477.88s-31,127.81-26.48,153.89c39.62,13.92,56.53,41.92,131.89,18.92C213,619.36,226.92,553,226.92,553"/><path class="cls-3" d="M203.62,455.82l23.5,14.38c20.15,12.35,7.45,41,7.45,41l-8.23,30.87-78.61,6.54"/><path class="cls-2" d="M172,559.77l-52.83-10.59c-5.76-.3-5.88-1.79-5.36-6.83,1.55-14.72,8.76-29.07,8.76-29.07s-29.85-2.35-39.33-6l-3.63-1.14s-38.89,65.05,13.86,82.52c49.48,3.61,64.94.61,64.94.61"/><path class="cls-3" d="M171,559.69s6.66-8.73,11.63-6.9,2.19,10.51,2.19,10.51L170.24,568Z"/><rect class="cls-4" x="167" y="534.4" width="75.53" height="43.28" rx="3.33" transform="translate(-387.72 547.63) rotate(-68.97)"/><path class="cls-2" d="M176.66,559.54s19.74-3,19,14c-.71,16.18-22.1,18-67.58,16.29,0-15.86,11.7-29.39,11.7-29.39Z"/><path class="cls-2" d="M178.4,417.69c13.33-44.83,50.73-52.2,74.2-43.75s12.48,35.84,12.48,35.84l-9.79,14.56c-.18,3.88.8,9.58.28,12.44-1.43,7.88-9.8,12-17.56,8.81h0c-12.4,25.1-40.88,6.1-40.88,6.1S174.32,439.55,178.4,417.69Z"/><path class="cls-2" d="M213.67,444.5l-6.48,14.19a29,29,0,0,1-23.3,17.08c-8.35.78-13.81-2.38-17.36-6.58-5.78-6.83-6.11-16.86-1.32-24.5,3.75-6,9-14,14-20.52"/><path class="cls-5" d="M216.17,423.74l1,.18a13.06,13.06,0,0,0,12.18-4.07c2.67-2.94,5.56-6.68,6.75-10.15,2.46-7.17,7.52-6,17.2-4.35s41.88,13,37.17-7.72c-3.74-13.17-52.12-68.85-87.66-25.66-9.88,9-15.58,12.6-21,32.74a5.77,5.77,0,0,0,3.89,7c7,2.11,12.55,2,25.23-19.23,0,0,9.47-11.42,11.77,7.39a21.49,21.49,0,0,1-7.52,20.06,2.19,2.19,0,0,0,1,3.81Z"/></g><g id="Yellow_Shirt" data-name="Yellow Shirt"><circle class="cls-6" cx="1123.11" cy="494.83" r="177.91"/><path class="cls-7" d="M1183.86,481.16s31,127.85,26.51,153.89c-39.66,13.88-56.56,41.92-131.92,18.9,10.27-31.33-3.64-97.65-3.64-97.65"/><path class="cls-7" d="M1131.34,445.69l33.93,12.22a58,58,0,0,1,32.62,29.46c18.24,38,50.07,112.61,18.39,112.23-49.07,0-81-.64-81-.64L1026,589.26a10.39,10.39,0,0,1-9.43-11.27h0a6.24,6.24,0,0,1,.13-1l3.54-19.25,30.86-54.87c7.49-11.49,18.12-21.47,29-29.76l13.9-10.54Z"/><rect class="cls-4" x="1059.75" y="512.77" width="48.53" height="93.99" rx="3.94" transform="translate(-66.22 153.1) rotate(-7.84)"/><path class="cls-8" d="M1142,559.16l-22.91-2s-7.68-10.26-15.67-9.72c-5.46,0,3.47,18.4,3.47,18.4s-19.69-2.11-19.86,12.63c-.24,21.39,18.65,22.58,64.13,20.29C1151.15,577.81,1142,559.16,1142,559.16Z"/><path class="cls-8" d="M1063,547.78c6.61-4.31,5.84,4.66,2.21,15.24,8.79,3.17,26.57,39.83-16.76,33.42-12.9-2.56-21.54-4.68-26.85-6.12a7.91,7.91,0,0,1-5.7-9l4.33-23.51s22.58.78,35.34-1.23C1058.84,556,1056.4,552.09,1063,547.78Z"/><path class="cls-8" d="M1141.4,471c-2,4.54-5.91,8.72-13.35,10.28a26,26,0,0,1-24.65-8.37l-9.31-10.39s-30.24,9.7-36.08-17.57h0a12.82,12.82,0,0,1-14.09-11.41v0a12.54,12.54,0,0,1-.06-1.94c.15-2.84,2.29-7.93,3-11.63l-5.77-16.54s-4-29,19.28-30.17,56,16.54,58.35,62.62c6,4.22,12.68,9.7,17.48,13.81A18.5,18.5,0,0,1,1141.4,471Z"/><path class="cls-5" d="M1125.68,386.5c-1.37-18.79-24.91-60.11-77.44-21.8a7.3,7.3,0,0,1-1.31.73c-19.17,8.15-12.65,34.1-2.68,33s25.64-5.74,27.75,2.41c.91,3.51,9.48,12.68,13.13,17.06a6.34,6.34,0,0,1,1.35,2.81c1,5,5.39,21.34,18.08,25.43a6.4,6.4,0,0,1,4.41,5.38c1,9.18,1.47,21.45,13.6,24.29a6.29,6.29,0,0,1,4.35,3.8c2.8,6.82,9.33,18,27.22,14.66,11.22-.15,15.46-16.07,5.74-25.53a6.32,6.32,0,0,1-1.61-6c3.4-14.48-5.71-24.17-10.55-28.15a6.35,6.35,0,0,1-2.31-5.49c.7-7.71.41-26.51-16.83-37.56A6.37,6.37,0,0,1,1125.68,386.5Z"/></g><g id="Pink_Shirt" data-name="Pink Shirt"><circle class="cls-9" cx="400.69" cy="177.91" r="177.91"/><path class="cls-10" d="M388.4,118.07l-33.9,12.22a58,58,0,0,0-32.62,29.46c-18.24,38-50.07,112.61-18.39,112.23,49.07,0,81-.63,81-.63l109.32-9.66a10.39,10.39,0,0,0,9.43-11.27h0a6.24,6.24,0,0,0-.13-1l-3.54-19.25-30.86-54.92c-7.49-11.49-18.12-21.47-29-29.76L425.77,135Z"/><path class="cls-10" d="M327.58,161s-31,127.85-26.52,153.89c39.66,13.88,56.56,41.92,131.93,18.89-10.27-31.32,3.63-97.64,3.63-97.64"/><rect class="cls-4" x="390.25" y="209.1" width="93.98" height="48.52" rx="3.94" transform="translate(144.96 633.61) rotate(-81.95)"/><path class="cls-11" d="M377.78,231.57l22.91-2s7.71-10.27,15.71-9.73c5.46,0-3.47,18.4-3.47,18.4s19.69-2.11,19.86,12.63c.25,21.39-18.65,22.58-64.13,20.29C368.62,250.22,377.78,231.57,377.78,231.57Z"/><path class="cls-11" d="M456.8,220.18c-6.61-4.31-5.84,4.66-2.21,15.24-8.79,3.17-26.57,39.83,16.77,33.42,12.89-2.56,21.53-4.68,26.84-6.12a7.9,7.9,0,0,0,5.7-9l-4.33-23.51S477,231,464.23,229C460.93,228.41,463.4,224.49,456.8,220.18Z"/><path class="cls-11" d="M378.4,143.43c2,4.54,5.9,8.72,13.34,10.29a26.07,26.07,0,0,0,24.66-8.37l9.31-10.4s30.24,9.7,36.08-17.57h0A12.82,12.82,0,0,0,475.88,106a12.54,12.54,0,0,0,.06-1.94c-.15-2.84-2.29-7.93-3-11.63l5.77-16.54s4.06-29-19.28-30.17-56,16.54-58.35,62.62c-6,4.22-12.68,9.7-17.48,13.81A18.5,18.5,0,0,0,378.4,143.43Z"/><path class="cls-12" d="M433.61,70.17c-15.39,40.06-47.09,48.59-47.09,48.59-8.22,3-41.82,21.22-53.59,27.66a1.25,1.25,0,0,1-1.71-.5,1.29,1.29,0,0,1,0-1.26l39.84-66L393.86,41A41,41,0,0,1,436.4,21.87c12.87,2.36,28.06,6.63,41.38,14.36,19.52,11.32,5.41,39.61,5.41,39.61S464.91,87.31,433.61,70.17Z"/></g><g id="Green_Shirt" data-name="Green Shirt"><circle class="cls-13" cx="890.06" cy="177.91" r="177.91"/><path class="cls-14" d="M956.34,162.9s31,127.85,26.52,153.89c-39.66,13.9-56.56,41.9-131.92,18.9C861.2,304.37,847.3,238,847.3,238"/><path class="cls-14" d="M895.49,126.15l33.91,12.21A58,58,0,0,1,962,167.82c18.24,38,50.07,112.61,18.39,112.24-49.07,0-81-.64-81-.64l-109.3-9.73a10.39,10.39,0,0,1-9.43-11.27h0a6.24,6.24,0,0,1,.13-1l3.59-19.22,30.86-54.88c7.49-11.49,18.12-21.47,29-29.76l14-10.56Z"/><rect class="cls-4" x="823.87" y="193.27" width="48.53" height="93.99" rx="3.94" transform="translate(-24.85 117.94) rotate(-7.84)"/><path class="cls-15" d="M906.14,239.69l-22.91-2s-7.68-10.27-15.67-9.73c-5.46,0,3.47,18.41,3.47,18.41s-19.69-2.12-19.86,12.62c-.24,21.39,18.65,22.58,64.13,20.29C915.3,258.29,906.14,239.69,906.14,239.69Z"/><path class="cls-15" d="M827.12,228.25c6.61-4.3,5.84,4.66,2.21,15.24,8.79,3.18,26.57,39.83-16.76,33.43-12.9-2.57-21.54-4.69-26.85-6.13a7.91,7.91,0,0,1-5.7-9.05l4.33-23.5s22.58.78,35.34-1.23C823,236.49,820.51,232.56,827.12,228.25Z"/><path class="cls-15" d="M905.5,151.51c-2,4.54-5.9,8.71-13.35,10.28a26,26,0,0,1-24.65-8.37L858.19,143s-30.24,9.7-36.08-17.57h0A12.82,12.82,0,0,1,808,114v0a12.41,12.41,0,0,1-.06-1.93c.15-2.84,2.29-7.94,3-11.64l-5.77-16.54s-4-29,19.28-30.17,56,16.54,58.35,62.62c6,4.22,12.68,9.71,17.48,13.81A18.52,18.52,0,0,1,905.5,151.51Z"/><path class="cls-16" d="M850.26,92.61a3.14,3.14,0,0,0,2-3.21L852,86.71c-.34-3.93-2.57-9,.12-11.89,6.11-6.56,7.94,2.48,7.94,2.48,4.72,24.28,9.92,26.26,17.21,26.63a5.76,5.76,0,0,0,6-5.27c1.73-20.76-2.42-26-8.66-37.89C855.82,8.09,798.4,36.43,790.4,47.55c-11.46,17.94,15.73,25.83,25.4,27.53s21.6.17,23.76,7.8C839.58,82.88,842.51,95.62,850.26,92.61Z"/></g></g><g id="Phone"><rect class="cls-17" x="515.97" y="347.27" width="252.07" height="505.73" rx="43.68"/><path class="cls-18" d="M570,358.34H715.39a44.3,44.3,0,0,1,44.3,44.3V803h-234V402.64a44.3,44.3,0,0,1,44.3-44.3Z"/><circle class="cls-1" cx="566.43" cy="684.76" r="18.06"/><circle class="cls-7" cx="566.43" cy="732.39" r="18.06"/><rect class="cls-19" x="572.52" y="424.26" width="140.26" height="140.26"/><path class="cls-20" d="M604.83,591.15h75.65a12.38,12.38,0,0,1,12.38,12.38h0a12.37,12.37,0,0,1-12.38,12.37H604.83a12.37,12.37,0,0,1-12.38-12.37h0A12.38,12.38,0,0,1,604.83,591.15Z"/><rect class="cls-20" x="589.58" y="679.78" width="45.97" height="9.96"/><rect class="cls-20" x="589.58" y="727.41" width="45.97" height="9.96"/><circle class="cls-6" cx="667.82" cy="684.76" r="18.06"/><circle class="cls-13" cx="667.82" cy="732.39" r="18.06"/><rect class="cls-20" x="690.97" y="679.78" width="45.97" height="9.96"/><rect class="cls-20" x="690.97" y="727.41" width="45.97" height="9.96"/><rect class="cls-21" x="642.65" y="424.26" width="70.13" height="70.13"/><rect class="cls-21" x="572.52" y="494.39" width="70.13" height="70.13"/><path class="cls-22" d="M525.68,803h234a37.75,37.75,0,0,1-37.75,37.75H563.43A37.75,37.75,0,0,1,525.68,803Z"/></g></svg>