<svg xmlns="http://www.w3.org/2000/svg" width="1065" height="594" viewBox="0 0 1065 594"><defs><style>.cls-1{fill:#0b35aa;}.cls-2{fill:#828282;}.cls-3{fill:#bfc1bf;}.cls-4{fill:#111;}.cls-5{fill:#3c8998;}.cls-6{fill:#fdd106;}.cls-7{fill:#515151;}.cls-8{fill:#fff;}.cls-9{fill:#dc8359;}.cls-10{fill:#44bfb7;}.cls-11{fill:#616161;}.cls-12{fill:#2d2d2d;}</style></defs><title>drive copy</title><g id="Car"><g id="Musical_Notes" data-name="Musical Notes"><circle class="cls-1" cx="132.91" cy="148.18" r="10.53"/><rect class="cls-1" x="134.62" y="104.94" width="8.72" height="45.03" rx="3.67" transform="translate(-0.63 0.69) rotate(-0.28)"/><circle class="cls-1" cx="159.05" cy="148.05" r="10.53"/><rect class="cls-1" x="160.76" y="104.81" width="8.72" height="45.03" rx="3.67" transform="translate(-0.63 0.82) rotate(-0.28)"/><rect class="cls-1" x="134.53" y="104.87" width="34.86" height="9.44" rx="3.7" transform="translate(-0.54 0.75) rotate(-0.28)"/><circle class="cls-1" cx="175.81" cy="74.22" r="10.53"/><rect class="cls-1" x="177.63" y="31.01" width="8.72" height="45.03" rx="3.67"/><circle class="cls-1" cx="201.96" cy="74.22" r="10.53"/><rect class="cls-1" x="203.77" y="31.01" width="8.72" height="45.03" rx="3.67"/><rect class="cls-1" x="177.63" y="31.01" width="34.86" height="9.44" rx="3.7"/><circle class="cls-1" cx="206.11" cy="170.76" r="10.53"/><rect class="cls-1" x="207.92" y="127.54" width="8.72" height="45.03" rx="3.67"/><circle class="cls-1" cx="232.25" cy="170.76" r="10.53"/><rect class="cls-1" x="234.07" y="127.54" width="8.72" height="45.03" rx="3.67"/><rect class="cls-1" x="207.92" y="127.54" width="34.86" height="9.44" rx="3.7"/><circle class="cls-1" cx="108.09" cy="71.26" r="8.59"/><rect class="cls-1" x="109.57" y="36" width="7.11" height="36.74" rx="2.99"/><circle class="cls-1" cx="129.43" cy="71.26" r="8.59"/><rect class="cls-1" x="130.91" y="36" width="7.11" height="36.74" rx="2.99"/><rect class="cls-1" x="109.57" y="36" width="28.45" height="7.7" rx="3.02"/><circle class="cls-1" cx="224.19" cy="95.3" r="8.2"/><rect class="cls-1" x="225.6" y="66" width="6.79" height="30.72" rx="2.67"/><circle class="cls-1" cx="186.64" cy="127.23" r="10.36"/><rect class="cls-1" x="188.43" y="90.23" width="8.57" height="38.79" rx="3.38"/><circle class="cls-1" cx="147.22" cy="91.17" r="7.52"/><rect class="cls-1" x="148.51" y="64.3" width="6.23" height="28.17" rx="2.45"/></g></g><g id="SHARE"><rect class="cls-2" x="268.28" y="50.27" width="252.07" height="505.73" rx="43.68"/><rect class="cls-3" x="251.28" y="50.27" width="252.07" height="505.73" rx="43.68"/><path class="cls-4" d="M305.29,61.34H450.7a44.3,44.3,0,0,1,44.3,44.3V506a0,0,0,0,1,0,0H261a0,0,0,0,1,0,0V105.64a44.3,44.3,0,0,1,44.3-44.3Z"/><circle class="cls-5" cx="301.73" cy="387.76" r="18.06"/><circle class="cls-6" cx="301.73" cy="435.39" r="18.06"/><rect class="cls-7" x="307.83" y="127.26" width="140.26" height="140.26"/><rect class="cls-8" x="327.75" y="294.15" width="100.41" height="24.75" rx="12.38"/><rect class="cls-8" x="324.88" y="382.78" width="45.97" height="9.96"/><rect class="cls-8" x="324.88" y="430.41" width="45.97" height="9.96"/><circle class="cls-9" cx="403.13" cy="387.76" r="18.06"/><circle class="cls-10" cx="403.13" cy="435.39" r="18.06"/><rect class="cls-8" x="426.27" y="382.78" width="45.97" height="9.96"/><rect class="cls-8" x="426.27" y="430.41" width="45.97" height="9.96"/><rect class="cls-11" x="377.96" y="127.26" width="70.13" height="70.13"/><rect class="cls-11" x="307.83" y="197.39" width="70.13" height="70.13"/><path class="cls-12" d="M261,506h234a0,0,0,0,1,0,0v0a37.75,37.75,0,0,1-37.75,37.75H298.73A37.75,37.75,0,0,1,261,506v0a0,0,0,0,1,0,0Z"/></g></svg>